<svg width="486" height="110" viewBox="0 0 486 110" fill="none" xmlns="http://www.w3.org/2000/svg">
<path d="M393 107.209H286.151C285.657 107.209 285.462 106.567 285.874 106.293L326.626 79.1245C327.038 78.8501 326.843 78.2085 326.349 78.2085H233.097C232.991 78.2085 232.888 78.242 232.803 78.3041L193.171 107.113C193.086 107.175 192.983 107.209 192.877 107.209H124.996C124.516 107.209 124.312 106.598 124.695 106.309L202.305 47.8995C202.688 47.6108 202.484 47 202.004 47H67.4528C66.9772 47 66.7702 46.3986 67.1451 46.1059L101.355 19.3941C101.73 19.1014 101.523 18.5 101.047 18.5H0" stroke="white" stroke-opacity="0.8" stroke-dasharray="6 6"/>
<path d="M411.924 36.2156H295.207C294.762 36.2156 294.539 35.677 294.854 35.362L328.354 1.86202C328.447 1.76826 328.574 1.71558 328.707 1.71558H485.5" stroke="white" stroke-opacity="0.8" stroke-dasharray="6 6"/>
<ellipse cx="295.801" cy="35.3753" rx="4.83973" ry="2.90384" transform="rotate(-0.473531 295.801 35.3753)" fill="white" fill-opacity="0.6"/>
<ellipse cx="295.801" cy="35.3753" rx="3.10294" ry="1.86177" transform="rotate(-0.473531 295.801 35.3753)" fill="white"/>
<path d="M296 20C297.245 20 298.367 19.6942 299.367 19.0827C300.367 18.4711 301.156 17.6658 301.733 16.6667C300.956 16.0222 300.078 15.5275 299.1 15.1827C298.122 14.8378 297.089 14.6658 296 14.6667C294.911 14.6667 293.878 14.8391 292.9 15.184C291.922 15.5289 291.045 16.0231 290.267 16.6667C290.845 17.6667 291.633 18.4724 292.633 19.084C293.633 19.6955 294.756 20.0009 296 20ZM296 13.3333C296.733 13.3333 297.361 13.072 297.884 12.5493C298.407 12.0267 298.668 11.3991 298.667 10.6667C298.667 9.93332 298.405 9.30532 297.883 8.78266C297.36 8.25999 296.733 7.9991 296 7.99999C295.267 7.99999 294.639 8.26132 294.116 8.78399C293.593 9.30666 293.333 9.93421 293.333 10.6667C293.333 11.4 293.595 12.028 294.117 12.5507C294.64 13.0733 295.268 13.3342 296 13.3333ZM296 29.3333C292.422 26.2889 289.75 23.4613 287.984 20.8507C286.218 18.24 285.334 15.8231 285.333 13.6C285.333 10.2667 286.406 7.6111 288.551 5.63332C290.696 3.65555 293.179 2.66666 296 2.66666C298.822 2.66666 301.306 3.65555 303.451 5.63332C305.596 7.6111 306.668 10.2667 306.667 13.6C306.667 15.8222 305.783 18.2391 304.016 20.8507C302.249 23.4622 299.577 26.2898 296 29.3333Z" fill="white"/>
<ellipse cx="126.801" cy="106.375" rx="4.83973" ry="2.90384" transform="rotate(-0.473531 126.801 106.375)" fill="white" fill-opacity="0.6"/>
<ellipse cx="126.801" cy="106.375" rx="3.10294" ry="1.86177" transform="rotate(-0.473531 126.801 106.375)" fill="white"/>
<path d="M127 91C128.245 91 129.367 90.6942 130.367 90.0827C131.367 89.4711 132.156 88.6658 132.733 87.6667C131.956 87.0222 131.078 86.5275 130.1 86.1827C129.122 85.8378 128.089 85.6658 127 85.6667C125.911 85.6667 124.878 85.8391 123.9 86.184C122.922 86.5289 122.045 87.0231 121.267 87.6667C121.845 88.6667 122.633 89.4724 123.633 90.084C124.633 90.6955 125.756 91.0009 127 91ZM127 84.3333C127.733 84.3333 128.361 84.072 128.884 83.5493C129.407 83.0267 129.668 82.3991 129.667 81.6667C129.667 80.9333 129.405 80.3053 128.883 79.7827C128.36 79.26 127.733 78.9991 127 79C126.267 79 125.639 79.2613 125.116 79.784C124.593 80.3067 124.333 80.9342 124.333 81.6667C124.333 82.4 124.595 83.028 125.117 83.5507C125.64 84.0733 126.268 84.3342 127 84.3333ZM127 100.333C123.422 97.2889 120.75 94.4613 118.984 91.8507C117.218 89.24 116.334 86.8231 116.333 84.6C116.333 81.2667 117.406 78.6111 119.551 76.6333C121.696 74.6555 124.179 73.6667 127 73.6667C129.822 73.6667 132.306 74.6555 134.451 76.6333C136.596 78.6111 137.668 81.2667 137.667 84.6C137.667 86.8222 136.783 89.2391 135.016 91.8507C133.249 94.4622 130.577 97.2898 127 100.333Z" fill="white"/>
</svg>
