<svg width="537" height="185" viewBox="0 0 537 185" fill="none" xmlns="http://www.w3.org/2000/svg">
<path fill-rule="evenodd" clip-rule="evenodd" d="M54.1577 19H51V18H54.1577V19ZM66.7886 19H60.4732V18H66.7886V19ZM79.4195 19H73.1041V18H79.4195V19ZM92.0504 19H85.735V18H92.0504V19ZM104.681 19H98.3659V18H104.681V19ZM117.312 19H110.997V18H117.312V19ZM129.943 19H123.628V18H129.943V19ZM142.574 19H136.259V18H142.574V19ZM152.047 19H148.889V18H152.047C152.998 18 153.412 19.2028 152.663 19.7882L150.525 21.4577L149.909 20.6695L152.047 19ZM141.357 27.3474L145.633 24.0085L146.248 24.7967L141.972 28.1356L141.357 27.3474ZM132.804 34.0254L137.08 30.6864L137.696 31.4746L133.42 34.8136L132.804 34.0254ZM124.252 40.7033L128.528 37.3644L129.143 38.1526L124.867 41.4915L124.252 40.7033ZM117.837 45.7118L119.975 44.0423L120.591 44.8305L118.453 46.5H121.511V47.5H118.453C117.502 47.5 117.088 46.2972 117.837 45.7118ZM133.743 47.5H127.627V46.5H133.743V47.5ZM145.975 47.5H139.859V46.5H145.975V47.5ZM158.207 47.5H152.091V46.5H158.207V47.5ZM170.439 47.5H164.323V46.5H170.439V47.5ZM182.67 47.5H176.555V46.5H182.67V47.5ZM194.902 47.5H188.786V46.5H194.902V47.5ZM207.134 47.5H201.018V46.5H207.134V47.5ZM219.366 47.5H213.25V46.5H219.366V47.5ZM231.598 47.5H225.482V46.5H231.598V47.5ZM243.83 47.5H237.714V46.5H243.83V47.5ZM253.004 47.5H249.946V46.5H253.004C253.964 46.5 254.373 47.7216 253.605 48.299L251.18 50.1243L250.579 49.3253L253.004 47.5ZM240.878 56.6265L245.728 52.9759L246.33 53.7749L241.479 57.4255L240.878 56.6265ZM231.176 63.9277L236.027 60.2771L236.628 61.0761L231.778 64.7267L231.176 63.9277ZM221.475 71.2289L226.326 67.5783L226.927 68.3773L222.077 72.0279L221.475 71.2289ZM211.774 78.5301L216.625 74.8795L217.226 75.6785L212.375 79.3291L211.774 78.5301ZM283.509 77.8996C283.68 77.7754 283.886 77.7085 284.097 77.7085H287.011V78.7085H284.097L281.62 80.5091L281.032 79.7002L283.509 77.8996ZM298.668 78.7085H292.839V77.7085H298.668V78.7085ZM310.324 78.7085H304.496V77.7085H310.324V78.7085ZM321.98 78.7085H316.152V77.7085H321.98V78.7085ZM333.637 78.7085H327.809V77.7085H333.637V78.7085ZM345.293 78.7085H339.465V77.7085H345.293V78.7085ZM356.95 78.7085H351.122V77.7085H356.95V78.7085ZM368.606 78.7085H362.778V77.7085H368.606V78.7085ZM377.349 78.7085H374.434V77.7085H377.349C378.338 77.7085 378.727 78.9917 377.903 79.5406L375.356 81.2386L374.802 80.4065L377.349 78.7085ZM202.073 85.8312L206.923 82.1806L207.525 82.9797L202.674 86.6302L202.073 85.8312ZM276.666 84.1102L271.712 87.7113L271.124 86.9024L276.078 83.3013L276.666 84.1102ZM364.614 87.1985L369.708 83.8025L370.262 84.6346L365.168 88.0306L364.614 87.1985ZM192.372 93.1324L197.222 89.4818L197.824 90.2808L192.973 93.9314L192.372 93.1324ZM266.758 91.3124L261.804 94.9135L261.216 94.1046L266.17 90.5035L266.758 91.3124ZM354.426 93.9905L359.52 90.5945L360.074 91.4266L354.98 94.8225L354.426 93.9905ZM182.67 100.434L187.521 96.783L188.122 97.582L183.272 101.233L182.67 100.434ZM344.238 100.782L349.332 97.3865L349.886 98.2185L344.792 101.615L344.238 100.782ZM256.85 98.5146L251.896 102.116L251.308 101.307L256.262 97.7057L256.85 98.5146ZM175.395 105.91L177.82 104.084L178.421 104.883L175.996 106.709H178.824V107.709H175.996C175.036 107.709 174.627 106.487 175.395 105.91ZM336.597 105.876L339.144 104.178L339.698 105.011L337.151 106.709H340.119V107.709H337.151C336.162 107.709 335.773 106.425 336.597 105.876ZM246.942 105.717L244.465 107.517C244.294 107.642 244.088 107.709 243.877 107.709H241.049V106.709H243.877L246.354 104.908L246.942 105.717ZM190.138 107.709H184.481V106.709H190.138V107.709ZM201.451 107.709H195.795V106.709H201.451V107.709ZM212.765 107.709H207.108V106.709H212.765V107.709ZM224.078 107.709H218.422V106.709H224.078V107.709ZM235.392 107.709H229.735V106.709H235.392V107.709ZM351.991 107.709H346.055V106.709H351.991V107.709ZM363.864 107.709H357.928V106.709H363.864V107.709ZM375.736 107.709H369.8V106.709H375.736V107.709ZM387.608 107.709H381.672V106.709H387.608V107.709ZM399.48 107.709H393.544V106.709H399.48V107.709ZM411.352 107.709H405.416V106.709H411.352V107.709ZM423.224 107.709H417.288V106.709H423.224V107.709ZM435.096 107.709H429.16V106.709H435.096V107.709ZM444 107.709H441.032V106.709H444V107.709ZM2.90603 108.093H0V107.093H2.90603V108.093ZM14.5302 108.093H8.7181V107.093H14.5302V108.093ZM26.1543 108.093H20.3422V107.093H26.1543V108.093ZM37.7784 108.093H31.9664V107.093H37.7784V108.093ZM49.4026 108.093H43.5905V107.093H49.4026V108.093ZM61.0267 108.093H55.2146V107.093H61.0267V108.093ZM72.6508 108.093H66.8387V107.093H72.6508V108.093ZM84.2749 108.093H78.4629V107.093H84.2749V108.093ZM95.8991 108.093H90.087V107.093H95.8991V108.093ZM107.523 108.093H101.711V107.093H107.523V108.093ZM119.147 108.093H113.335V107.093H119.147V108.093ZM127.865 108.093H124.959V107.093H127.865C128.834 107.093 129.237 108.332 128.454 108.901L126.12 110.602L125.531 109.793L127.865 108.093ZM116.194 116.594L120.862 113.194L121.451 114.002L116.782 117.402L116.194 116.594ZM106.856 123.395L111.525 119.994L112.113 120.803L107.445 124.203L106.856 123.395ZM97.5184 130.195L102.187 126.795L102.776 127.603L98.1072 131.004L97.5184 130.195ZM88.1809 136.996L92.8497 133.596L93.4384 134.404L88.7696 137.804L88.1809 136.996ZM78.8434 143.797L83.5121 140.396L84.1009 141.205L79.4321 144.605L78.8434 143.797ZM69.5058 150.597L74.1746 147.197L74.7633 148.005L70.0946 151.405L69.5058 150.597ZM60.1683 157.398L64.8371 153.997L65.4258 154.806L60.757 158.206L60.1683 157.398ZM50.8308 164.198L55.4996 160.798L56.0883 161.606L51.4195 165.007L50.8308 164.198ZM41.4933 170.999L46.162 167.599L46.7507 168.407L42.082 171.807L41.4933 170.999ZM32.1557 177.8L36.8245 174.399L37.4132 175.208L32.7445 178.608L32.1557 177.8ZM25.1526 182.9L27.487 181.2L28.0757 182.008L25.7413 183.709H28.6998V184.709H25.7413C24.7732 184.709 24.37 183.47 25.1526 182.9ZM40.5337 184.709H34.6167V183.709H40.5337V184.709ZM52.3675 184.709H46.4506V183.709H52.3675V184.709ZM64.2014 184.709H58.2845V183.709H64.2014V184.709ZM76.0353 184.709H70.1184V183.709H76.0353V184.709ZM87.8692 184.709H81.9522V183.709H87.8692V184.709ZM99.703 184.709H93.7861V183.709H99.703V184.709ZM111.537 184.709H105.62V183.709H111.537V184.709ZM123.371 184.709H117.454V183.709H123.371V184.709ZM135.205 184.709H129.288V183.709H135.205V184.709ZM147.039 184.709H141.122V183.709H147.039V184.709ZM158.872 184.709H152.955V183.709H158.872V184.709ZM170.706 184.709H164.789V183.709H170.706V184.709ZM182.54 184.709H176.623V183.709H182.54V184.709ZM194.374 184.709H188.457V183.709H194.374V184.709ZM206.208 184.709H200.291V183.709H206.208V184.709ZM218.042 184.709H212.125V183.709H218.042V184.709ZM229.876 184.709H223.959V183.709H229.876V184.709ZM241.709 184.709H235.793V183.709H241.709V184.709ZM253.543 184.709H247.626V183.709H253.543V184.709ZM265.377 184.709H259.46V183.709H265.377V184.709ZM277.211 184.709H271.294V183.709H277.211V184.709ZM289.045 184.709H283.128V183.709H289.045V184.709ZM300.879 184.709H294.962V183.709H300.879V184.709ZM312.713 184.709H306.796V183.709H312.713V184.709ZM324.547 184.709H318.63V183.709H324.547V184.709ZM336.38 184.709H330.463V183.709H336.38V184.709ZM348.214 184.709H342.297V183.709H348.214V184.709ZM360.048 184.709H354.131V183.709H360.048V184.709ZM371.882 184.709H365.965V183.709H371.882V184.709ZM383.716 184.709H377.799V183.709H383.716V184.709ZM395.55 184.709H389.633V183.709H395.55V184.709ZM407.384 184.709H401.467V183.709H407.384V184.709ZM419.217 184.709H413.3V183.709H419.217V184.709ZM431.051 184.709H425.134V183.709H431.051V184.709ZM442.885 184.709H436.968V183.709H442.885V184.709ZM451.761 184.709H448.802V183.709H451.761V184.709Z" fill="white" fill-opacity="0.8"/>
<path fill-rule="evenodd" clip-rule="evenodd" d="M379 1.50847C379.188 1.32094 379.442 1.21558 379.707 1.21558H382.722V2.21558L379.707 2.21558L377.613 4.30933L376.906 3.60222L379 1.50847ZM394.783 2.21558H388.753V1.21558H394.783V2.21558ZM406.844 2.21558H400.814V1.21558H406.844V2.21558ZM418.905 2.21558H412.875V1.21558H418.905V2.21558ZM430.966 2.21558H424.936V1.21558H430.966V2.21558ZM443.027 2.21558H436.997V1.21558H443.027V2.21558ZM455.088 2.21558H449.058V1.21558H455.088V2.21558ZM467.149 2.21558H461.119V1.21558H467.149V2.21558ZM479.21 2.21558H473.18V1.21558H479.21V2.21558ZM491.271 2.21558H485.241V1.21558H491.271V2.21558ZM503.332 2.21558H497.302V1.21558H503.332V2.21558ZM515.393 2.21558H509.363V1.21558H515.393V2.21558ZM527.454 2.21558H521.424V1.21558H527.454V2.21558ZM536.5 2.21558H533.485V1.21558H536.5V2.21558ZM373.426 8.49683L369.238 12.6843L368.531 11.9772L372.719 7.78972L373.426 8.49683ZM365.051 16.8718L360.863 21.0593L360.156 20.3522L364.344 16.1647L365.051 16.8718ZM356.676 25.2468L352.488 29.4343L351.781 28.7272L355.969 24.5397L356.676 25.2468ZM348.301 33.6218L346.207 35.7156H349.125V36.7156H346.207C345.316 36.7156 344.87 35.6384 345.5 35.0085L347.594 32.9147L348.301 33.6218ZM354.961 35.7156H360.797V36.7156H354.961V35.7156ZM366.633 35.7156H372.468V36.7156H366.633V35.7156ZM378.304 35.7156H384.14V36.7156H378.304V35.7156ZM389.976 35.7156H395.812V36.7156H389.976V35.7156ZM401.648 35.7156H407.484V36.7156H401.648V35.7156ZM413.319 35.7156H419.155V36.7156H413.319V35.7156ZM424.991 35.7156H430.827V36.7156H424.991V35.7156ZM436.663 35.7156H442.499V36.7156H436.663V35.7156ZM448.334 35.7156H454.17V36.7156H448.334V35.7156ZM460.006 35.7156H462.924V36.7156H460.006V35.7156Z" fill="white" fill-opacity="0.8"/>
<ellipse cx="346.801" cy="35.3753" rx="4.83973" ry="2.90384" transform="rotate(-0.473531 346.801 35.3753)" fill="white" fill-opacity="0.6"/>
<ellipse cx="346.802" cy="35.3753" rx="3.10294" ry="1.86177" transform="rotate(-0.473531 346.802 35.3753)" fill="white"/>
<path d="M347 20C348.244 20 349.367 19.6942 350.367 19.0827C351.367 18.4711 352.156 17.6658 352.733 16.6667C351.956 16.0222 351.078 15.5276 350.1 15.1827C349.122 14.8378 348.089 14.6658 347 14.6667C345.911 14.6667 344.878 14.8391 343.9 15.184C342.922 15.5289 342.044 16.0231 341.267 16.6667C341.844 17.6667 342.633 18.4725 343.633 19.084C344.633 19.6956 345.756 20.0009 347 20ZM347 13.3333C347.733 13.3333 348.361 13.072 348.884 12.5493C349.407 12.0267 349.668 11.3991 349.667 10.6667C349.667 9.93334 349.405 9.30534 348.883 8.78267C348.36 8.26001 347.732 7.99912 347 8.00001C346.267 8.00001 345.639 8.26134 345.116 8.78401C344.593 9.30667 344.332 9.93423 344.333 10.6667C344.333 11.4 344.595 12.028 345.117 12.5507C345.64 13.0733 346.268 13.3342 347 13.3333ZM347 29.3333C343.422 26.2889 340.75 23.4613 338.984 20.8507C337.218 18.24 336.334 15.8231 336.333 13.6C336.333 10.2667 337.406 7.61112 339.551 5.63334C341.696 3.65556 344.179 2.66667 347 2.66667C349.822 2.66667 352.306 3.65556 354.451 5.63334C356.596 7.61112 357.668 10.2667 357.667 13.6C357.667 15.8222 356.783 18.2391 355.016 20.8507C353.249 23.4622 350.577 26.2898 347 29.3333Z" fill="white"/>
<ellipse cx="177.801" cy="106.375" rx="4.83973" ry="2.90384" transform="rotate(-0.473531 177.801 106.375)" fill="white" fill-opacity="0.6"/>
<ellipse cx="177.802" cy="106.375" rx="3.10294" ry="1.86177" transform="rotate(-0.473531 177.802 106.375)" fill="white"/>
<path d="M178 91C179.244 91 180.367 90.6942 181.367 90.0827C182.367 89.4711 183.156 88.6658 183.733 87.6667C182.956 87.0222 182.078 86.5275 181.1 86.1827C180.122 85.8378 179.089 85.6658 178 85.6667C176.911 85.6667 175.878 85.8391 174.9 86.184C173.922 86.5289 173.044 87.0231 172.267 87.6667C172.844 88.6667 173.633 89.4724 174.633 90.084C175.633 90.6955 176.756 91.0009 178 91ZM178 84.3333C178.733 84.3333 179.361 84.072 179.884 83.5493C180.407 83.0267 180.668 82.3991 180.667 81.6667C180.667 80.9333 180.405 80.3053 179.883 79.7827C179.36 79.26 178.732 78.9991 178 79C177.267 79 176.639 79.2613 176.116 79.784C175.593 80.3067 175.332 80.9342 175.333 81.6667C175.333 82.4 175.595 83.028 176.117 83.5507C176.64 84.0733 177.268 84.3342 178 84.3333ZM178 100.333C174.422 97.2889 171.75 94.4613 169.984 91.8507C168.218 89.24 167.334 86.8231 167.333 84.6C167.333 81.2667 168.406 78.6111 170.551 76.6333C172.696 74.6555 175.179 73.6667 178 73.6667C180.822 73.6667 183.306 74.6555 185.451 76.6333C187.596 78.6111 188.668 81.2667 188.667 84.6C188.667 86.8222 187.783 89.2391 186.016 91.8507C184.249 94.4622 181.577 97.2898 178 100.333Z" fill="white"/>
</svg>
