<svg version="1.1" id="Layer_1" xmlns="http://www.w3.org/2000/svg"
	 viewBox="0 0 316 307" height="320px" >
<style type="text/css">
	.st0{fill:#FFFFFF;}
	.st1{opacity:0.2;fill:#FFFFFF;}
	.st2{opacity:0.8;fill:#FFFFFF;}
	.st3{opacity:0.8;}
</style>
<g>
	<g>
		<path class="st0" d="M219.2,280.7c-30.2,0-59.5-1.5-73.5-6.1c-13.5-4.4-30.4-5.9-46.8-7.3c-21.9-1.9-40.9-3.6-46.4-12
			c-1.8-2.7-2.1-6.1-0.8-9.9c1.2-3.7,6.7-3,13-2.2c5.5,0.7,11.8,1.6,14.9-0.8c1.1-0.9,1.8-2.2,2-4.1c1.1-12.1-10.1-19.6-21.9-27.5
			c-11.7-7.8-23.8-15.9-25-29.2c-0.6-6.4,2.8-9.1,6.4-12c6.2-4.9,13.9-11.1,6.9-41C41.1,100,29.3,73.6,19.7,52.4
			C13.5,38.7,8.2,26.8,5.9,17.8C5.7,17.3,4.1,11.9,7.3,7C9.7,3.2,14.3,0.8,21,0c4.5-0.5,13.7,10.9,27.4,34
			c10.5,17.8,21.5,39.3,25.4,49.8c5,13.2,18,23,36.9,27.8c23.6,6,50.1,2.2,63-9.1c3.8-3.3,7-6.1,9.7-8.5
			c13.7-12.1,14.3-12.6,18.1-9.3c1.9,1.6-0.4,4.8-5.5,11.9c-7.3,10.1-18.2,25.5-15.7,36.7c0.9,4.1,3.5,7.3,7.9,9.7
			c27.9,15.5,34.9,27.3,39.2,46.4l0.6,2.7c4.4,19.6,12.6,56.1,40.2,61.1c3.4,0.6,6.7,1.2,10,1.7c19.6,3.3,35.1,5.9,36.9,12.4
			c0.7,2.6-0.7,5.3-4.4,8.5l-0.2,0.2l-0.3,0.1C300.3,278,259,280.7,219.2,280.7z M57.6,244.6c-2,0-3.6,0.4-3.9,1.4
			c-1.1,3.3-0.9,5.9,0.5,8.1c5,7.6,24.3,9.3,44.9,11c16.5,1.4,33.5,2.9,47.2,7.4c32,10.4,145.1,4.9,163.2,1.5c2.8-2.5,4-4.6,3.6-6.2
			c-1.4-5.2-17.9-7.9-35.2-10.9c-3.3-0.6-6.6-1.1-10-1.7c-29-5.2-37.4-42.5-41.9-62.6l-0.6-2.7c-4.2-18.5-11-30-38.2-45.1
			c-4.9-2.7-7.9-6.4-8.9-11c-2.7-12.2,8.6-27.9,16-38.4c2.7-3.8,5.7-8,5.8-9.2c-1.5-1.3-1.8-1.5-3.2-0.7c-2,1.1-5.4,4.1-12.1,10
			c-2.7,2.3-5.9,5.2-9.7,8.5c-13.4,11.6-40.6,15.6-64.8,9.5c-19.5-4.9-33.1-15.2-38.3-29C67.9,74.1,57.1,52.8,46.6,35
			C31.9,10.2,23.9,1.7,21.2,2C15.2,2.8,11.1,4.8,9,8.1c-2.7,4.2-1.2,9.1-1.2,9.1l0,0.1c2.3,8.8,7.6,20.6,13.8,34.3
			c9.6,21.3,21.5,47.7,28.3,76.6c7.3,31.1-0.9,37.7-7.6,43c-3.5,2.8-6.1,4.8-5.6,10.2c1.1,12.4,12.8,20.2,24.1,27.7
			c11.8,7.9,24.1,16.1,22.8,29.4c-0.2,2.4-1.1,4.2-2.7,5.5c-3.7,3-10.5,2.1-16.4,1.3C62.1,245,59.6,244.6,57.6,244.6z"/>
	</g>
	<path class="st1" d="M6.8,17.5c0,0-4.5-14.2,14.3-16.5c9-1.1,44,62.7,51.7,83.2c13,34.6,77.9,39.6,101.5,19.1s22.7-21,26.5-17.8
		c3.8,3.2-40.2,43.4-13.2,58.4c27,15,34.3,26.4,38.7,45.8c4.4,19.4,12,59.2,41.7,64.5c29.6,5.3,56.9,7.9,41.9,20.8
		c-17.9,3.5-132,8.9-164-1.5c-37-12-101.7-2.5-93.3-27.9c2.3-7,28.6,6.7,29.9-7.3c2.3-24.9-44.6-30.8-47-56.9
		c-1.5-16.4,24.4-5.5,13.2-53.1S12.7,40.1,6.8,17.5z"/>
</g>
<path class="st2" d="M32.8,123.5l-0.1-0.5l2.2-0.7l-0.9-2.3l-7,2.6l1.1,3.2l0.8,1.6l3.9-1.1l0.1-0.9l2.6,0.7l0.1-2.3L32.8,123.5z
	 M30.9,123.4l0.4,1.1l-1.5,0.5l-0.5-1.2L30.9,123.4z M32.4,115.2l-0.9-2.2l-3.9,1.4l-3.2,1.1l0.9,2.2l2.6-0.9l0.6,1.3l-2.6,1
	l0.7,2.1l6.8-2.4l-0.7-2.1l-2.4,0.8l-0.5-1.4L32.4,115.2z M22.2,109.1l2,5.3l2-0.7l-0.6-1.6l5.1-1.7l-0.9-2.2l-4.9,2l-0.6-1.8
	L22.2,109.1z M23.7,101.5l-2.7,1.1l-0.6,1.3L22,108l7-2.5l-0.8-2.2l-2.3,0.9l-1-2.5L23.7,101.5z M23.1,105.2l-0.2-0.1l-0.4-1.1
	l1.3-0.5l0.5,1.2L23.1,105.2z M20.6,95.6l-2.1,2.6l0.8,2l3.4,0.4l4.2-1.1l-0.6-2l-1.2,0.4l-0.7-1.6l1.4-0.6l-0.8-2L20.6,95.6z
	 M23.2,98.4l-1.1,0.3l-1.5-0.1l1.1-1.1l0.9-0.4L23.2,98.4z"/>
<g>
	<g>
		<path class="st0" d="M139.9,179.9c-0.2,0-0.5-0.1-0.7-0.2c-0.4-0.3-9.7-6.6-9.7-14.3c0-2.8,1.1-5.4,3.1-7.4c2-2,4.6-3.1,7.4-3.1
			c2.8,0,5.4,1.1,7.4,3.1c2,2,3.1,4.6,3.1,7.4c0,7.7-9.4,14.1-9.7,14.3C140.4,179.8,140.2,179.9,139.9,179.9z M139.9,157.4
			c-2.1,0-4.1,0.8-5.6,2.3c-1.5,1.5-2.3,3.5-2.3,5.6c0,5.3,5.8,10.1,7.9,11.7c2.1-1.6,7.9-6.4,7.9-11.7c0-2.1-0.8-4.1-2.3-5.6
			C144,158.3,142.1,157.4,139.9,157.4z"/>
	</g>
	<g>
		<path class="st0" d="M139.9,169.7c-2.4,0-4.3-1.9-4.3-4.3c0-2.4,1.9-4.3,4.3-4.3s4.3,1.9,4.3,4.3
			C144.3,167.7,142.3,169.7,139.9,169.7z M139.9,163.6c-1,0-1.8,0.8-1.8,1.8c0,1,0.8,1.8,1.8,1.8s1.8-0.8,1.8-1.8
			C141.7,164.4,140.9,163.6,139.9,163.6z"/>
	</g>
	<g>
		<path class="st0" d="M129.1,195.8l2.6-0.2l-0.1-4.4v-3.7l-6.5,0.3l0,8l2.4,0l-0.1-6.1l1.6-0.1L129.1,195.8z M139.2,190.7l-1.9-3.1
			l-2.3,0.1l-1.6,3.4l-0.3,4.7l2.2,0l0.1-1.4l1.9-0.2l0.1,1.6l2.3-0.1L139.2,190.7z M135.5,192.4l0.1-1.2l0.7-1.5l0.7,1.5l0.1,1.1
			L135.5,192.4z M147,191.8l-0.1-3.1l-1.1-1.1l-4.9,0.1l0,8.1l2.6,0l-0.1-2.7l2.9-0.2L147,191.8z M143.4,189.9l0.1-0.1l1.2,0l0,1.5
			l-1.4,0.1L143.4,189.9z M148.2,187.7l0.1,8l2.6-0.1l-0.1-3.1l1.4,1l0.1,2.2l2.7-0.2l-0.5-3.4l-1.6-0.7l1.6-1l0.2-2.7l-2.6-0.2
			l-0.1,2.3l-1.3,1l-0.1-3.2L148.2,187.7z M102.8,203.9l-0.7,0l0.8-1.4l-1.3-0.2l-1.1,1.8l0,1.9l2.4-0.1L102.8,203.9z M105.7,204
			l-0.7,0l0.8-1.5l-1.4-0.2l-1.1,1.8l0,2l2.4,0L105.7,204z M109.6,208.5l0.1-3.7l2.4,0l-0.1-2.2l-4.8,0.4l0,7.6l5.1,0.3v-2.4
			L109.6,208.5z M119,206.5l1-1.9v-0.1l-1.1-1.9l-1.8,0l-3.1,0.2l-0.1,0.1l0.1,7.9l5,0l1.5-2.5v-0.1L119,206.5z M117.5,209l-1.3,0.1
			v-1.6h1.3L117.5,209z M117.3,205.8l-1.2,0v-1.4l1.2,0L117.3,205.8z M126.6,208.6l-2.7,0.1l0-1.1l1.8,0l0-1.9l-1.9,0l0-1l2.4,0
			l0.1-2.1l-4.4,0.1l-0.5,0.3l-0.1,7.6l5.1,0L126.6,208.6z M133.4,202.6l-6.1,0.1l0,2.3l1.9-0.1l0,5.8l2.5-0.1l-0.3-5.8l2.1,0
			L133.4,202.6z M140,205.7l-1.9-3.1l-2.3,0.1l-1.6,3.4l-0.3,4.7l2.2,0l0.1-1.4l1.9-0.2l0.1,1.6l2.3-0.1L140,205.7z M136.3,207.4
			l0.1-1.2l0.7-1.5l0.7,1.5l0.1,1.1L136.3,207.4z M145.3,202.6l0.1,8.2l2.6-0.2l-0.2-6l2.8,0l-0.1-2.2L145.3,202.6z M157.4,202.6
			l-5.6,0.1l-0.2,7.7l2.3,0.3l3.8-0.2l0.3-1.5L157.4,202.6z M153.9,208.5l0.1-3.6l1.4,0.1l0.2,3.5L153.9,208.5z M165.6,206.8
			l-0.1-3.1l-1.1-1.1l-4.9,0.1l0,8.1l2.6,0l-0.1-2.7l2.9-0.2L165.6,206.8z M162,204.9l0.1-0.1l1.2,0l0,1.5l-1.4,0.1L162,204.9z
			 M172.7,205.7l-1.9-3.1l-2.3,0.1l-1.6,3.4l-0.3,4.7l2.2,0l0.1-1.4l1.9-0.2l0.1,1.6l2.3-0.1L172.7,205.7z M169,207.4l0.1-1.2
			l0.7-1.5l0.7,1.5l0.1,1.1L169,207.4z M177,204.8l0.7,0l-0.8,1.4l1.3,0.2l1.1-1.8l0-1.9l-2.4,0.1L177,204.8z M174.1,204.8l0.7,0
			l-0.8,1.5l1.4,0.2l1.1-1.8l0-2l-2.4,0L174.1,204.8z"/>
	</g>
</g>
<path class="st2" d="M204.7,300.1l0.1,1l-3.3,0l0,2.1l4.8-0.2l1-1.4l-0.5-6.4l-2.3,0.1l0.2,2.9l-1.3,0l-0.2-2.7l-2.3,0.2l0.4,4.6
	L204.7,300.1z M212.7,302.3l2.4-0.3l-0.3-3.9l-0.2-3.4l-6,0.7l0.4,4.9l-0.8,2.2l2.4,0.2l0.7-2.2l-0.1-2.1l-0.2-1.4l1.4-0.2
	L212.7,302.3z M216.4,302.1l2.2-0.1l-0.1-2.3l-2.2,0.1L216.4,302.1z M222.7,294.5l0.3,7.2l2.3-0.1l-0.2-3.8l0.8,1.4l1.3-0.2l0.5-1.4
	l0.4,3.9l2.2-0.3l-0.8-7.3l-2,0.1l-1.3,2.9l-1.7-2.8L222.7,294.5z M236.8,296.1l-1.9-2.7l-2.1,0.2l-1.3,3.2l0,4.3l2.1-0.1l0-1.3
	l1.7-0.3l0.2,1.5l2.1-0.2L236.8,296.1z M233.4,297.9l0-1.1l0.5-1.4l0.7,1.3l0.1,1L233.4,297.9z M238.2,293.2l0.5,7.6l2.4-0.3
	l-0.5-5.5l2.5-0.1l-0.2-2.1L238.2,293.2z M248.3,300.1l2.4-0.2l-0.3-4.2l-0.2-3.3l-2.4,0.2l0.1,0.9l-0.7,1.4l-0.6,1.1l-0.3-3.2
	l-2.2,0.1l0.5,7.2l2.2,0l-0.1-1l0.8-1.5l0.5-0.9L248.3,300.1z M254.4,297.6l-0.1-3.5l2.2-0.2l-0.2-2l-4.4,0.6l0.5,7l4.7-0.1
	l-0.1-2.2L254.4,297.6z M263,291.5l-5.6,0.5l0.2,2.1l1.7-0.2l0.3,5.4l2.3-0.3l-0.6-5.3l1.9-0.1L263,291.5z M270,294.9l-0.3-2.9
	l-1.1-0.9l-4.5,0.4l0.5,7.4l2.4-0.1l-0.2-2.4l2.6-0.3L270,294.9z M266.5,293.4l0.1-0.1l1.1-0.1l0.1,1.4l-1.3,0.2L266.5,293.4z
	 M276.4,293.5l-1.9-2.7l-2.1,0.2l-1.3,3.2l0,4.3l2.1-0.1l0-1.3l1.7-0.3l0.2,1.5l2.1-0.2L276.4,293.5z M273.1,295.3l0-1.1l0.5-1.4
	l0.7,1.3l0.1,1L273.1,295.3z M282.4,297.7l2.4-0.3l-0.3-3.9l-0.2-3.4l-6,0.7l0.4,4.9l-0.8,2.2l2.4,0.2l0.7-2.2l-0.1-2.1l-0.2-1.4
	l1.4-0.2L282.4,297.7z M289.9,297.3l2.4-0.2l-0.3-4.2l-0.2-3.4l-2.4,0.3l0.2,2.8l-1.4,0.2L288,290l-2.2,0.1l0.5,7.2l2.2-0.1
	l-0.2-2.5l1.4-0.2L289.9,297.3z M298.9,292l-1.9-2.7l-2.1,0.2l-1.3,3.2l0,4.3l2.1-0.1l0-1.3l1.7-0.3l0.2,1.5l2.1-0.2L298.9,292z
	 M295.6,293.8l0-1.1l0.5-1.4l0.7,1.3l0.1,1L295.6,293.8z"/>
<g class="st3">
	<path class="st0" d="M206.7,287c-2.1,0-4.2,0-6.1,0l0-1c2,0,4,0,6.1,0V287z M212.8,287l0-1c2,0,4,0,6.1-0.1l0,1
		C216.9,287,214.8,287,212.8,287z M194.5,286.9c-2.1,0-4.2-0.1-6.1-0.1l0-1c1.9,0.1,4,0.1,6.1,0.1L194.5,286.9z M225.1,286.9l0-1
		c2,0,4-0.1,6.1-0.1l0,1C229.1,286.8,227.1,286.8,225.1,286.9z M237.3,286.6l0-1c2,0,4-0.1,6.1-0.1l0,1
		C241.4,286.5,239.3,286.6,237.3,286.6z M182.2,286.5c-2.2-0.1-4.2-0.2-6.1-0.3l0.1-1c1.9,0.1,3.9,0.2,6.1,0.3L182.2,286.5z
		 M249.6,286.3l0-1l0.8,0c1.7-0.2,3.5-0.4,5.2-0.5l0.1,1c-1.7,0.2-3.5,0.4-5.2,0.5L249.6,286.3z M170,285.7
		c-2.1-0.2-4.2-0.4-6.1-0.7l0.1-1c1.9,0.3,3.9,0.5,6.1,0.7L170,285.7z M261.8,285.1l-0.1-1c2.1-0.2,4.1-0.4,6.1-0.6l0.1,1
		C265.9,284.7,263.8,284.9,261.8,285.1z M157.9,284.1c-2.1-0.4-4-0.8-6-1.3l0.3-1c1.9,0.5,3.9,0.9,5.9,1.3L157.9,284.1z M274,284
		l-0.1-1c2.1-0.2,4.1-0.4,6.1-0.6l0.1,1C278.1,283.6,276,283.8,274,284z M286.2,282.9l-0.1-1c2.1-0.2,4.2-0.4,6.1-0.5l0.1,1
		C290.3,282.5,288.3,282.7,286.2,282.9z M298.4,281.8l-0.1-1c2.2-0.2,4.3-0.3,6.1-0.5l0.1,1C302.6,281.5,300.6,281.7,298.4,281.8z
		 M146,281c-2.1-0.7-4.1-1.4-5.8-2l0.3-1c1.7,0.6,3.7,1.3,5.8,2L146,281z M310.6,280.9l-0.1-1c1.4-0.1,3.8-0.3,4.2-0.3h0.5l0.1,0.5
		v0.4l-0.6,0.1l0,0C314.3,280.7,312.8,280.7,310.6,280.9z M134.4,277.1c-1.9-0.6-3.9-1-5.9-1.5l0.2-1c2,0.4,4,0.9,6,1.5L134.4,277.1
		z M122.5,274.6c-0.6-0.1-1.1-0.1-1.7-0.2c-1.4-0.2-2.9-0.3-4.4-0.5l0.1-1c1.5,0.2,3,0.3,4.4,0.5c0.6,0.1,1.1,0.1,1.7,0.2
		L122.5,274.6z M110.3,273.3c-2-0.2-4-0.4-6.1-0.6l0.1-1c2.1,0.2,4.1,0.4,6.1,0.6L110.3,273.3z M98.1,272.1l-6.1-0.6l0.1-1l6.1,0.6
		L98.1,272.1z M86,270.9c-2.1-0.2-4.1-0.4-6.1-0.6l0.1-1c2,0.2,4,0.4,6.1,0.6L86,270.9z M73.8,269.7c-2.1-0.2-4.2-0.4-6.1-0.7l0.1-1
		c1.9,0.2,4,0.4,6.1,0.6L73.8,269.7z M61.6,268.3c-2.6-0.3-4.5-0.6-6.1-0.9l0.2-1c1.5,0.3,3.5,0.6,6,0.9L61.6,268.3z"/>
</g>
<g class="st3">
	<path class="st0" d="M45.9,243.9h-1c0-1.4,0.4-2.7,1.3-3.8l0.8,0.6C46.2,241.7,45.9,242.7,45.9,243.9z M51.9,238l-0.3-1
		c1.6-0.5,3.5-0.9,6.1-1.3l0.2,1C55.3,237.1,53.5,237.5,51.9,238z M63.9,235.9l-0.1-1c2-0.3,4.3-0.7,5.8-1.4l0.4,0.9
		C68.4,235.1,66,235.5,63.9,235.9z M70.8,229.4c-0.8-1.2-2.1-2.6-4.1-4.3l0.6-0.8c2.1,1.7,3.5,3.2,4.3,4.5L70.8,229.4z M61.8,221.4
		c-1.4-1-2.8-2-4.3-3l-0.7-0.5l0.6-0.8l0.7,0.5c1.5,1,3,2,4.3,3L61.8,221.4z M51.7,214.5c-1.8-1.3-3.4-2.5-4.9-3.6l0.6-0.8
		c1.5,1.1,3.1,2.3,4.9,3.6L51.7,214.5z M42,206.9c-1.6-1.4-3.2-2.8-4.5-4.2l0.7-0.7c1.4,1.4,2.9,2.7,4.5,4.1L42,206.9z M33.3,198.2
		c-0.4-0.5-0.7-0.9-1.1-1.4c-0.9-1.2-1.7-2.5-2.3-3.8l0.9-0.4c0.6,1.2,1.3,2.4,2.2,3.6c0.4,0.5,0.7,0.9,1.1,1.4L33.3,198.2z
		 M28.2,187c0-0.5-0.1-0.9-0.1-1.4c0-1.6,0.2-3.2,0.6-4.8l1,0.3c-0.4,1.6-0.6,3.1-0.6,4.6c0,0.4,0,0.9,0.1,1.3L28.2,187z M32,175.4
		l-0.9-0.5c0.8-1.6,1.9-3.4,3.2-5.3l0.8,0.6C33.8,172.1,32.8,173.8,32,175.4z M38.6,165.2l-0.8-0.6l0.5-0.6c1.1-1.5,2.1-2.9,3.1-4.3
		l0.8,0.6c-1,1.4-2,2.9-3.1,4.4L38.6,165.2z M45.3,154.8l-0.9-0.4c0.2-0.5,0.4-1,0.6-1.5c0.3-1,0.5-2.3,0.5-4l0-0.3l1,0l0,0.3
		c0,1.7-0.2,3.2-0.5,4.3C45.7,153.8,45.5,154.3,45.3,154.8z M44.8,142.6c-0.3-1.8-0.7-3.8-1.1-6l1-0.2c0.5,2.2,0.9,4.2,1.1,6.1
		L44.8,142.6z M42.2,130.7c-0.5-1.9-1-3.8-1.6-5.9l1-0.3c0.6,2.1,1.1,4.1,1.6,5.9L42.2,130.7z M38.8,118.9c-0.6-1.9-1.2-3.8-1.9-5.8
		l1-0.3c0.7,2,1.3,3.9,1.9,5.8L38.8,118.9z M35,107.3c-0.7-1.9-1.3-3.8-2-5.8l1-0.3c0.7,2,1.4,3.9,2,5.8L35,107.3z M30.9,95.8
		c-0.7-1.9-1.4-3.8-2.1-5.7l1-0.4c0.7,1.9,1.4,3.8,2.1,5.8L30.9,95.8z M26.6,84.3c-0.7-1.9-1.5-3.8-2.2-5.7l1-0.4
		c0.7,1.9,1.5,3.8,2.2,5.7L26.6,84.3z M22.2,72.9c-0.8-1.9-1.5-3.8-2.3-5.7l0.9-0.4c0.8,1.9,1.5,3.8,2.3,5.7L22.2,72.9z M17.6,61.5
		c-0.8-1.9-1.6-3.8-2.3-5.7l0.9-0.4c0.8,1.9,1.6,3.8,2.3,5.7L17.6,61.5z M12.9,50.2c-0.8-1.9-1.6-3.8-2.4-5.6l0.9-0.4
		c0.8,1.8,1.6,3.7,2.4,5.6L12.9,50.2z M8,38.9c-0.8-1.9-1.7-3.8-2.5-5.6l0.9-0.4c0.8,1.8,1.6,3.7,2.5,5.6L8,38.9z M3.1,27.7
		c-0.9-2-1.8-3.9-2.5-5.6l0.9-0.4c0.8,1.7,1.6,3.6,2.5,5.6L3.1,27.7z"/>
</g>
</svg>
