<svg width="143" height="21" viewBox="0 0 143 21" fill="none" xmlns="http://www.w3.org/2000/svg" className="logo">
<path d="M1.63322 12.612C2.30789 12.6707 2.90189 12.5313 3.41522 12.194C3.92856 11.842 4.37589 11.3727 4.75722 10.786C5.13856 10.1993 5.46856 9.54667 5.74722 8.828C6.02589 8.09467 6.26789 7.39066 6.47322 6.716C6.67856 6.02666 6.85456 5.40333 7.00122 4.846C7.14789 4.274 7.28722 3.86333 7.41922 3.614C7.41922 2.80733 7.55856 2.15466 7.83722 1.656C8.11589 1.15733 8.52656 0.849331 9.06922 0.731999C9.86122 0.570665 10.5579 0.511998 11.1592 0.555998C11.7752 0.599998 12.3106 0.651331 12.7652 0.709998C13.2346 0.768664 13.6306 0.775998 13.9532 0.731999C14.2906 0.673332 14.5839 0.467998 14.8332 0.115997C14.8332 0.819998 14.7452 1.50933 14.5692 2.184C14.3932 2.85866 14.0926 3.438 13.6672 3.922C13.5499 4.56733 13.4472 5.242 13.3592 5.946C13.2859 6.65 13.2272 7.354 13.1832 8.058C13.1392 8.762 13.1172 9.45133 13.1172 10.126C13.1172 10.786 13.1392 11.402 13.1832 11.974C13.1979 11.9887 13.2199 11.996 13.2492 11.996C13.4986 12.0693 13.7332 12.2747 13.9532 12.612C14.1732 12.9347 14.3712 13.3307 14.5472 13.8C14.7232 14.2693 14.8772 14.7753 15.0092 15.318C15.1412 15.8607 15.2366 16.3887 15.2952 16.902C15.3539 17.4153 15.3759 17.8773 15.3612 18.288C15.3612 18.6987 15.3099 18.9993 15.2072 19.19C15.0019 19.5713 14.6866 19.8867 14.2612 20.136C13.8359 20.4 13.3812 20.5613 12.8972 20.62C12.4132 20.6787 11.9366 20.6053 11.4672 20.4C10.9979 20.2093 10.6312 19.85 10.3672 19.322C10.6606 19.1753 10.9686 18.9847 11.2912 18.75C11.6139 18.5153 11.9146 18.244 12.1932 17.936C12.4719 17.6427 12.7066 17.3127 12.8972 16.946C13.0879 16.594 13.2052 16.2127 13.2492 15.802C12.9999 15.6993 12.6406 15.6553 12.1712 15.67C11.7166 15.67 11.2106 15.6993 10.6532 15.758C10.0959 15.8167 9.51656 15.89 8.91522 15.978C8.31389 16.066 7.74189 16.1467 7.19922 16.22C6.67122 16.308 6.20189 16.3667 5.79122 16.396C5.38056 16.44 5.07989 16.44 4.88922 16.396C5.24122 17.276 5.40256 18.0313 5.37322 18.662C5.35856 19.3073 5.14589 19.784 4.73522 20.092C4.33922 20.4 3.74522 20.5247 2.95322 20.466C2.17589 20.422 1.20056 20.1653 0.0272217 19.696C0.569888 19.3 1.03922 18.8527 1.43522 18.354C1.81656 17.87 2.10989 17.364 2.31522 16.836C2.50589 16.308 2.60856 15.7873 2.62322 15.274C2.63789 14.746 2.55722 14.2547 2.38122 13.8C2.17589 13.5947 2.00722 13.3967 1.87522 13.206C1.74322 13.0007 1.66256 12.8027 1.63322 12.612ZM9.97122 4.098C9.67789 4.56733 9.39922 5.16133 9.13522 5.88C8.87122 6.584 8.64389 7.33933 8.45322 8.146C8.26256 8.95267 8.10856 9.75933 7.99122 10.566C7.88856 11.3727 7.84456 12.0987 7.85922 12.744C8.13789 12.6707 8.41656 12.6047 8.69522 12.546C8.97389 12.4873 9.25256 12.4287 9.53122 12.37C9.54589 11.886 9.59722 11.3287 9.68522 10.698C9.78789 10.0673 9.91989 9.41467 10.0812 8.74C10.2572 8.06533 10.4479 7.39066 10.6532 6.716C10.8732 6.04133 11.1079 5.418 11.3572 4.846C11.1079 4.77266 10.8732 4.67 10.6532 4.538C10.4479 4.39133 10.2206 4.24466 9.97122 4.098Z" fill="white"/>
<path d="M23.0093 14.834C23.4493 14.2767 23.7353 13.844 23.8673 13.536C23.9993 13.2133 24.08 13.0007 24.1093 12.898C24.036 12.8393 23.9553 12.8027 23.8673 12.788C23.7646 13.008 23.662 13.1987 23.5593 13.36C23.4713 13.5213 23.4126 13.624 23.3833 13.668C22.87 14.3867 22.3273 14.9293 21.7553 15.296C21.1833 15.6627 20.6186 15.8827 20.0613 15.956C19.504 16.0293 18.976 15.9707 18.4773 15.78C17.9933 15.5747 17.5826 15.274 17.2453 14.878C16.908 14.4673 16.666 13.976 16.5193 13.404C16.3873 12.832 16.3946 12.194 16.5413 11.49C16.688 10.786 16.9593 10.192 17.3553 9.708C17.7513 9.20933 18.2133 8.82067 18.7413 8.542C19.284 8.24867 19.856 8.058 20.4573 7.97C21.0586 7.86733 21.6306 7.86733 22.1733 7.97C22.8333 8.08733 23.3393 8.31467 23.6913 8.652C24.0433 8.98933 24.256 9.38533 24.3293 9.84C24.476 9.45867 24.5713 9.10666 24.6153 8.784C24.674 8.44667 24.6373 8.15333 24.5053 7.904C24.3293 7.56666 23.948 7.31733 23.3613 7.156C22.7746 6.98 22.1146 6.92866 21.3813 7.002C20.6626 7.07533 19.944 7.28067 19.2253 7.618C18.5213 7.94067 17.9493 8.432 17.5093 9.092C17.26 8.98933 17.0693 8.77667 16.9373 8.454C16.8053 8.13133 16.7393 7.772 16.7393 7.376C16.754 6.98 16.842 6.57666 17.0033 6.166C17.1646 5.75533 17.414 5.396 17.7513 5.088C18.03 4.83866 18.404 4.626 18.8733 4.45C19.3573 4.25933 19.878 4.12 20.4353 4.032C21.0073 3.92933 21.6013 3.88533 22.2173 3.9C22.8333 3.9 23.42 3.97333 23.9773 4.12C24.5346 4.252 25.0333 4.46466 25.4733 4.758C25.928 5.05133 26.2726 5.42533 26.5073 5.88C26.786 6.408 26.9546 6.936 27.0133 7.464C27.072 7.992 27.0793 8.51267 27.0353 9.026C27.006 9.53933 26.9473 10.0453 26.8593 10.544C26.786 11.028 26.7493 11.5047 26.7493 11.974C26.7493 12.4287 26.8153 12.8687 26.9473 13.294C27.0793 13.7193 27.336 14.1227 27.7173 14.504C27.1306 15.1053 26.588 15.516 26.0893 15.736C25.5906 15.956 25.136 16.044 24.7253 16C24.3293 15.9707 23.9846 15.846 23.6913 15.626C23.398 15.3913 23.1706 15.1273 23.0093 14.834ZM19.3353 12.172C19.526 12.304 19.7826 12.392 20.1053 12.436C20.428 12.48 20.78 12.48 21.1613 12.436C21.5426 12.392 21.924 12.304 22.3053 12.172C22.7013 12.04 23.068 11.8567 23.4053 11.622C23.2 11.402 22.8773 11.1967 22.4373 11.006C22.012 10.8007 21.418 10.7127 20.6553 10.742C20.3033 10.7567 20.0026 10.8153 19.7533 10.918C19.504 11.0207 19.3133 11.1453 19.1813 11.292C19.064 11.4387 19.0126 11.5927 19.0273 11.754C19.042 11.9153 19.1446 12.0547 19.3353 12.172Z" fill="white"/>
<path d="M39.9497 15.824C39.0257 15.8533 38.2263 15.6773 37.5517 15.296C36.877 14.9 36.4443 14.3793 36.2537 13.734C36.2097 13.646 36.173 13.5433 36.1437 13.426C36.129 13.294 36.1363 13.1253 36.1657 12.92C36.1657 12.8907 36.1657 12.876 36.1657 12.876C36.1803 12.8613 36.1877 12.8393 36.1877 12.81C36.2023 12.6927 36.2243 12.5827 36.2537 12.48C36.2977 12.3773 36.349 12.2673 36.4077 12.15C36.8623 10.83 37.1557 9.72267 37.2877 8.828C37.4197 7.93333 37.449 7.21466 37.3757 6.672C37.3023 6.11466 37.1483 5.71867 36.9137 5.484C36.679 5.23466 36.4223 5.11 36.1437 5.11C36.3783 4.758 36.6863 4.47933 37.0677 4.274C37.449 4.06866 37.845 3.95133 38.2557 3.922C38.6663 3.878 39.0477 3.92933 39.3997 4.076C39.7663 4.208 40.0377 4.43533 40.2137 4.758C40.4337 5.16867 40.485 5.748 40.3677 6.496C40.2503 7.22933 40.045 8.036 39.7517 8.916C40.2503 8.52 40.7417 8.11667 41.2257 7.706C41.7243 7.28067 42.157 6.86266 42.5237 6.452C42.905 6.02666 43.1983 5.60866 43.4037 5.198C43.6237 4.77266 43.7117 4.34733 43.6677 3.922C44.137 3.922 44.6063 3.98066 45.0757 4.098C45.5597 4.20066 45.985 4.362 46.3517 4.582C46.733 4.78733 47.0263 5.03667 47.2317 5.33C47.437 5.62333 47.503 5.946 47.4297 6.298C47.371 6.54733 47.107 6.92866 46.6377 7.442C46.623 7.86733 46.6157 8.35133 46.6157 8.894C46.6303 9.43667 46.6523 9.994 46.6817 10.566C46.7257 11.138 46.7843 11.6953 46.8577 12.238C46.931 12.766 47.0263 13.2427 47.1437 13.668C47.2757 14.0787 47.437 14.4087 47.6277 14.658C47.8183 14.8927 48.053 14.9953 48.3317 14.966C48.1117 15.3327 47.7963 15.5967 47.3857 15.758C46.975 15.9193 46.5497 16 46.1097 16C45.6843 15.9853 45.2883 15.8973 44.9217 15.736C44.5697 15.5747 44.335 15.3473 44.2177 15.054C43.9097 14.306 43.8363 13.47 43.9977 12.546C44.159 11.6073 44.423 10.522 44.7897 9.29C44.1883 9.87667 43.565 10.4853 42.9197 11.116C42.2743 11.7467 41.7023 12.3627 41.2037 12.964C40.705 13.5507 40.3237 14.0933 40.0597 14.592C39.8103 15.0907 39.7737 15.5013 39.9497 15.824Z" fill="white"/>
<path d="M50.5478 4.274C50.7385 4.494 51.0318 4.626 51.4278 4.67C51.8238 4.69933 52.2785 4.68466 52.7918 4.626C53.3052 4.55266 53.8551 4.46466 54.4418 4.362C55.0285 4.24466 55.6005 4.14933 56.1578 4.076C56.7298 3.988 57.2578 3.944 57.7418 3.944C58.2405 3.92933 58.6585 4.00266 58.9958 4.164C59.3331 4.32533 59.5605 4.604 59.6778 5C59.7952 5.38133 59.8318 5.814 59.7878 6.298C59.7438 6.76733 59.6192 7.23667 59.4138 7.706C59.2232 8.17533 58.9885 8.564 58.7098 8.872C58.5338 8.49067 58.2625 8.212 57.8958 8.036C57.5438 7.86 57.1258 7.75 56.6418 7.706C56.1578 7.64733 55.6298 7.64 55.0578 7.684C54.4858 7.71333 53.9065 7.75 53.3198 7.794C53.4958 8.39533 53.5985 8.98933 53.6278 9.576C53.6718 10.148 53.6791 10.6907 53.6498 11.204C53.6351 11.7173 53.6058 12.2013 53.5618 12.656C53.5325 13.096 53.5325 13.4993 53.5618 13.866C53.6058 14.2327 53.7085 14.548 53.8698 14.812C54.0311 15.076 54.3025 15.2813 54.6838 15.428C54.4931 15.5893 54.1632 15.736 53.6938 15.868C53.2392 16 52.7478 16.0513 52.2198 16.022C51.7065 15.9927 51.2151 15.8607 50.7458 15.626C50.2911 15.3913 49.9758 14.988 49.7998 14.416C49.6678 14.0053 49.6532 13.5433 49.7558 13.03C49.8585 12.5167 50.0051 11.974 50.1958 11.402C50.4011 10.8153 50.6138 10.2213 50.8338 9.62C51.0685 9.004 51.2518 8.40267 51.3838 7.816C51.0171 7.728 50.7238 7.56667 50.5038 7.332C50.2838 7.08267 50.1371 6.78933 50.0638 6.452C49.9905 6.11466 49.9905 5.75533 50.0638 5.374C50.1518 4.99266 50.3132 4.626 50.5478 4.274Z" fill="white"/>
<path d="M64.5017 12.436C64.4137 13.008 64.3623 13.58 64.3477 14.152C64.3477 14.724 64.4137 15.2593 64.5457 15.758C64.6777 16.2567 64.883 16.6893 65.1617 17.056C65.455 17.4227 65.8583 17.6867 66.3717 17.848C66.0783 18.42 65.7117 18.8893 65.2717 19.256C64.8463 19.6227 64.399 19.8793 63.9297 20.026C63.4603 20.1873 63.0057 20.224 62.5657 20.136C62.1257 20.0627 61.7517 19.8647 61.4437 19.542C61.0623 19.1313 60.8423 18.5813 60.7837 17.892C60.725 17.2173 60.7397 16.462 60.8277 15.626C60.9303 14.7753 61.0623 13.8807 61.2237 12.942C61.3997 12.0033 61.5317 11.072 61.6197 10.148C61.6783 9.56133 61.7297 9.026 61.7737 8.542C61.8177 8.058 61.8177 7.62533 61.7737 7.244C61.7443 6.86266 61.6563 6.54733 61.5097 6.298C61.363 6.034 61.121 5.836 60.7837 5.704C61.0183 5.264 61.3263 4.90466 61.7077 4.626C62.1037 4.33266 62.4997 4.12733 62.8957 4.01C63.3063 3.89266 63.6877 3.86333 64.0397 3.922C64.4063 3.966 64.685 4.10533 64.8757 4.34C65.0223 4.53066 65.1177 4.714 65.1617 4.89C65.2057 5.05133 65.213 5.22733 65.1837 5.418C65.1543 5.594 65.0957 5.78467 65.0077 5.99C64.9343 6.19533 64.8537 6.42266 64.7657 6.672C65.1177 5.90933 65.5723 5.31533 66.1297 4.89C66.687 4.45 67.2737 4.164 67.8897 4.032C68.5057 3.9 69.1143 3.90733 69.7157 4.054C70.3317 4.20066 70.8597 4.46466 71.2997 4.846C71.7983 5.286 72.1943 5.858 72.4877 6.562C72.781 7.266 72.9643 8.02133 73.0377 8.828C73.111 9.62 73.0743 10.4267 72.9277 11.248C72.781 12.0693 72.517 12.8173 72.1357 13.492C71.769 14.1667 71.285 14.7313 70.6837 15.186C70.0823 15.6407 69.3637 15.9047 68.5277 15.978C67.9117 16.0367 67.3617 15.9853 66.8777 15.824C66.4083 15.648 66.0123 15.3987 65.6897 15.076C65.367 14.7533 65.125 14.372 64.9637 13.932C64.8023 13.492 64.729 13.0227 64.7437 12.524L64.5017 12.436ZM70.0897 8.366C69.7817 8.014 69.371 7.77933 68.8577 7.662C68.3443 7.54466 67.8163 7.58133 67.2737 7.772C66.731 7.96266 66.2177 8.31467 65.7337 8.828C65.2643 9.34133 64.9123 10.0453 64.6777 10.94C64.9123 11.2627 65.2057 11.5193 65.5577 11.71C65.9243 11.886 66.3057 12.018 66.7017 12.106C67.0977 12.1793 67.4937 12.2013 67.8897 12.172C68.2857 12.128 68.645 12.0473 68.9677 11.93C69.3783 11.7833 69.7083 11.5633 69.9577 11.27C70.2217 10.9767 70.3977 10.6613 70.4857 10.324C70.5883 9.98667 70.603 9.642 70.5297 9.29C70.471 8.938 70.3243 8.63 70.0897 8.366Z" fill="white"/>
<path d="M81.8593 14.834C82.2993 14.2767 82.5853 13.844 82.7173 13.536C82.8493 13.2133 82.93 13.0007 82.9593 12.898C82.886 12.8393 82.8053 12.8027 82.7173 12.788C82.6146 13.008 82.512 13.1987 82.4093 13.36C82.3213 13.5213 82.2626 13.624 82.2333 13.668C81.72 14.3867 81.1773 14.9293 80.6053 15.296C80.0333 15.6627 79.4686 15.8827 78.9113 15.956C78.354 16.0293 77.826 15.9707 77.3273 15.78C76.8433 15.5747 76.4326 15.274 76.0953 14.878C75.758 14.4673 75.516 13.976 75.3693 13.404C75.2373 12.832 75.2446 12.194 75.3913 11.49C75.538 10.786 75.8093 10.192 76.2053 9.708C76.6013 9.20933 77.0633 8.82067 77.5913 8.542C78.134 8.24867 78.706 8.058 79.3073 7.97C79.9086 7.86733 80.4806 7.86733 81.0233 7.97C81.6833 8.08733 82.1893 8.31467 82.5413 8.652C82.8933 8.98933 83.106 9.38533 83.1793 9.84C83.326 9.45867 83.4213 9.10666 83.4653 8.784C83.524 8.44667 83.4873 8.15333 83.3553 7.904C83.1793 7.56666 82.798 7.31733 82.2113 7.156C81.6246 6.98 80.9646 6.92866 80.2313 7.002C79.5126 7.07533 78.794 7.28067 78.0753 7.618C77.3713 7.94067 76.7993 8.432 76.3593 9.092C76.11 8.98933 75.9193 8.77667 75.7873 8.454C75.6553 8.13133 75.5893 7.772 75.5893 7.376C75.604 6.98 75.692 6.57666 75.8533 6.166C76.0146 5.75533 76.264 5.396 76.6013 5.088C76.88 4.83866 77.254 4.626 77.7233 4.45C78.2073 4.25933 78.728 4.12 79.2853 4.032C79.8573 3.92933 80.4513 3.88533 81.0673 3.9C81.6833 3.9 82.27 3.97333 82.8273 4.12C83.3846 4.252 83.8833 4.46466 84.3233 4.758C84.778 5.05133 85.1226 5.42533 85.3573 5.88C85.636 6.408 85.8046 6.936 85.8633 7.464C85.922 7.992 85.9293 8.51267 85.8853 9.026C85.856 9.53933 85.7973 10.0453 85.7093 10.544C85.636 11.028 85.5993 11.5047 85.5993 11.974C85.5993 12.4287 85.6653 12.8687 85.7973 13.294C85.9293 13.7193 86.186 14.1227 86.5673 14.504C85.9806 15.1053 85.438 15.516 84.9393 15.736C84.4406 15.956 83.986 16.044 83.5753 16C83.1793 15.9707 82.8346 15.846 82.5413 15.626C82.248 15.3913 82.0206 15.1273 81.8593 14.834ZM78.1853 12.172C78.376 12.304 78.6326 12.392 78.9553 12.436C79.278 12.48 79.63 12.48 80.0113 12.436C80.3926 12.392 80.774 12.304 81.1553 12.172C81.5513 12.04 81.918 11.8567 82.2553 11.622C82.05 11.402 81.7273 11.1967 81.2873 11.006C80.862 10.8007 80.268 10.7127 79.5053 10.742C79.1533 10.7567 78.8526 10.8153 78.6033 10.918C78.354 11.0207 78.1633 11.1453 78.0313 11.292C77.914 11.4387 77.8626 11.5927 77.8773 11.754C77.892 11.9153 77.9946 12.0547 78.1853 12.172Z" fill="white"/>
<path d="M97.6147 10.39C97.1161 10.742 96.5587 11.006 95.9427 11.182C95.3414 11.358 94.7181 11.4607 94.0727 11.49C93.4421 11.5193 92.8188 11.4753 92.2028 11.358C91.5868 11.2407 91.0294 11.072 90.5307 10.852C90.5894 11.3213 90.7948 11.6953 91.1468 11.974C91.4988 12.238 91.9241 12.4213 92.4228 12.524C92.9214 12.6267 93.4567 12.656 94.0287 12.612C94.6154 12.568 95.1654 12.4727 95.6787 12.326C96.2067 12.1793 96.6688 11.9887 97.0648 11.754C97.4754 11.5047 97.7541 11.2333 97.9007 10.94C98.1647 10.984 98.3701 11.1307 98.5167 11.38C98.6781 11.6293 98.7661 11.9227 98.7807 12.26C98.8101 12.5973 98.7587 12.9567 98.6267 13.338C98.5094 13.7193 98.3114 14.064 98.0328 14.372C97.6368 14.812 97.0868 15.1787 96.3828 15.472C95.6788 15.7653 94.9234 15.934 94.1168 15.978C93.3248 16.022 92.5401 15.9267 91.7627 15.692C90.9854 15.4573 90.3327 15.0393 89.8047 14.438C89.4381 14.0273 89.1227 13.5067 88.8587 12.876C88.6094 12.2307 88.4627 11.5267 88.4187 10.764C88.3894 10.0013 88.4921 9.21667 88.7267 8.41C88.9761 7.58867 89.4161 6.79666 90.0467 6.034C90.6041 5.35933 91.2201 4.86066 91.8948 4.538C92.5841 4.20066 93.2661 4.00266 93.9408 3.944C94.6301 3.87066 95.2827 3.91466 95.8988 4.076C96.5148 4.22266 97.0207 4.44267 97.4167 4.736C97.8861 5.088 98.2527 5.51333 98.5167 6.012C98.7807 6.51066 98.9274 7.03133 98.9567 7.574C98.9861 8.102 98.8907 8.61533 98.6707 9.114C98.4654 9.61267 98.1134 10.038 97.6147 10.39ZM95.7227 7.618C95.5027 7.55933 95.1874 7.508 94.7767 7.464C94.3807 7.42 93.9554 7.42733 93.5007 7.486C93.0461 7.54466 92.5988 7.66933 92.1588 7.86C91.7188 8.05066 91.3521 8.35133 91.0587 8.762C91.2934 8.92333 91.5794 9.05533 91.9167 9.158C92.2687 9.246 92.6354 9.30467 93.0167 9.334C93.3981 9.36333 93.7794 9.36333 94.1608 9.334C94.5568 9.29 94.9307 9.21667 95.2827 9.114C95.6347 9.01133 95.8988 8.894 96.0748 8.762C96.2654 8.61533 96.3754 8.46867 96.4047 8.322C96.4341 8.17533 96.3901 8.04333 96.2728 7.926C96.1701 7.794 95.9867 7.69133 95.7227 7.618Z" fill="white"/>
<path d="M109.133 5.44C109.309 5.132 109.566 4.86066 109.903 4.626C110.255 4.39133 110.622 4.208 111.003 4.076C111.384 3.92933 111.751 3.84866 112.103 3.834C112.47 3.80466 112.756 3.84866 112.961 3.966C113.284 4.15666 113.548 4.52333 113.753 5.066C113.958 5.594 114.142 6.21 114.303 6.914C114.464 7.60333 114.618 8.32933 114.765 9.092C114.912 9.85467 115.08 10.5587 115.271 11.204C115.476 11.8347 115.718 12.37 115.997 12.81C116.29 13.2353 116.657 13.4553 117.097 13.47C116.877 14.1007 116.569 14.614 116.173 15.01C115.792 15.3913 115.388 15.6627 114.963 15.824C114.538 15.9853 114.12 16.044 113.709 16C113.313 15.9413 112.976 15.78 112.697 15.516C112.36 15.208 112.103 14.8413 111.927 14.416C111.766 13.976 111.648 13.4993 111.575 12.986C111.502 12.458 111.45 11.9007 111.421 11.314C111.392 10.7127 111.355 10.0893 111.311 9.444C111.032 10.2213 110.666 10.9767 110.211 11.71C109.771 12.4433 109.368 13.1547 109.001 13.844C109.162 14.3867 109.375 14.7167 109.639 14.834C109.478 15.1713 109.236 15.428 108.913 15.604C108.59 15.78 108.253 15.8753 107.901 15.89C107.549 15.89 107.219 15.8093 106.911 15.648C106.603 15.4867 106.398 15.2447 106.295 14.922C106.222 14.746 106.134 14.46 106.031 14.064C105.928 13.6533 105.804 13.184 105.657 12.656C105.525 12.1133 105.371 11.5413 105.195 10.94C105.034 10.3387 104.85 9.752 104.645 9.18C104.132 10.1773 103.809 11.006 103.677 11.666C103.545 12.326 103.53 12.8687 103.633 13.294C103.736 13.7047 103.912 14.02 104.161 14.24C104.425 14.4453 104.682 14.592 104.931 14.68C104.858 14.9587 104.645 15.2227 104.293 15.472C103.941 15.7067 103.545 15.868 103.105 15.956C102.665 16.0293 102.232 16 101.807 15.868C101.396 15.736 101.096 15.428 100.905 14.944C100.729 14.4893 100.656 14.0127 100.685 13.514C100.714 13.0007 100.839 12.4287 101.059 11.798C101.279 11.1527 101.594 10.4267 102.005 9.62C102.43 8.81333 102.944 7.87466 103.545 6.804C103.34 6.46667 103.12 6.21733 102.885 6.056C102.665 5.89466 102.43 5.836 102.181 5.88C102.328 5.484 102.614 5.132 103.039 4.824C103.479 4.50133 103.956 4.252 104.469 4.076C104.982 3.9 105.488 3.812 105.987 3.812C106.486 3.812 106.882 3.922 107.175 4.142C107.41 4.318 107.593 4.63333 107.725 5.088C107.872 5.528 107.989 6.04866 108.077 6.65C108.165 7.23666 108.238 7.87467 108.297 8.564C108.356 9.25333 108.414 9.928 108.473 10.588C108.649 10.2067 108.825 9.818 109.001 9.422C109.177 9.01133 109.338 8.61533 109.485 8.234C109.632 7.838 109.749 7.47133 109.837 7.134C109.94 6.782 109.998 6.46666 110.013 6.188C109.734 5.67466 109.441 5.42533 109.133 5.44Z" fill="white"/>
<path d="M129.581 13.756C129.581 14.4453 129.398 14.9953 129.031 15.406C128.665 15.802 128.122 16 127.403 16C126.714 16 126.179 15.802 125.797 15.406C125.416 15.01 125.225 14.46 125.225 13.756C125.225 12.9493 125.438 12.3773 125.863 12.04C126.289 11.7027 126.802 11.534 127.403 11.534C127.697 11.534 127.975 11.578 128.239 11.666C128.503 11.754 128.731 11.886 128.921 12.062C129.127 12.238 129.288 12.4653 129.405 12.744C129.523 13.0227 129.581 13.36 129.581 13.756Z" fill="white"/>
<path d="M135.907 13.756C135.907 14.4453 135.724 14.9953 135.357 15.406C134.99 15.802 134.448 16 133.729 16C133.04 16 132.504 15.802 132.123 15.406C131.742 15.01 131.551 14.46 131.551 13.756C131.551 12.9493 131.764 12.3773 132.189 12.04C132.614 11.7027 133.128 11.534 133.729 11.534C134.022 11.534 134.301 11.578 134.565 11.666C134.829 11.754 135.056 11.886 135.247 12.062C135.452 12.238 135.614 12.4653 135.731 12.744C135.848 13.0227 135.907 13.36 135.907 13.756Z" fill="white"/>
<path d="M142.233 13.756C142.233 14.4453 142.05 14.9953 141.683 15.406C141.316 15.802 140.774 16 140.055 16C139.366 16 138.83 15.802 138.449 15.406C138.068 15.01 137.877 14.46 137.877 13.756C137.877 12.9493 138.09 12.3773 138.515 12.04C138.94 11.7027 139.454 11.534 140.055 11.534C140.348 11.534 140.627 11.578 140.891 11.666C141.155 11.754 141.382 11.886 141.573 12.062C141.778 12.238 141.94 12.4653 142.057 12.744C142.174 13.0227 142.233 13.36 142.233 13.756Z" fill="white"/>
</svg>
