<svg width="119" height="118" viewBox="0 0 119 118" fill="none" xmlns="http://www.w3.org/2000/svg">
<circle cx="59.5" cy="59" r="58" fill="white" fill-opacity="0.2" stroke="white" stroke-width="2"/>
<path d="M47.519 49.672C47.7616 48.736 48.2816 47.8347 49.079 46.968C49.911 46.1013 50.899 45.3387 52.043 44.68C53.2216 44.0213 54.5043 43.4667 55.891 43.016C57.2776 42.5307 58.699 42.2187 60.155 42.08C61.611 41.9413 63.0323 41.976 64.419 42.184C65.8056 42.392 67.0536 42.808 68.163 43.432C69.827 44.4027 70.9883 45.5987 71.647 47.02C72.3403 48.4413 72.6176 49.88 72.479 51.336C72.3403 52.792 71.8376 54.144 70.971 55.392C70.1043 56.64 68.9603 57.5413 67.539 58.096C66.1176 58.6853 64.991 59.3093 64.159 59.968C63.3616 60.592 62.807 61.2333 62.495 61.892C62.183 62.5507 62.079 63.1747 62.183 63.764C62.3216 64.3533 62.6163 64.8733 63.067 65.324C61.403 66.2947 59.8776 66.78 58.491 66.78C57.139 66.7453 56.0296 66.4333 55.163 65.844C54.2963 65.22 53.7243 64.4053 53.447 63.4C53.1696 62.3947 53.3256 61.372 53.915 60.332C54.435 59.396 55.1283 58.6507 55.995 58.096C56.8616 57.5067 57.7803 57.0213 58.751 56.64C59.7216 56.2587 60.6923 55.9293 61.663 55.652C62.6683 55.3747 63.535 55.08 64.263 54.768C65.0256 54.456 65.5976 54.0747 65.979 53.624C66.395 53.1733 66.5163 52.584 66.343 51.856C66.1696 51.128 65.7363 50.608 65.043 50.296C64.3843 49.984 63.6043 49.8627 62.703 49.932C61.8016 49.9667 60.8483 50.1747 59.843 50.556C58.8376 50.9373 57.919 51.4573 57.087 52.116C56.255 52.74 55.579 53.4853 55.059 54.352C54.5736 55.184 54.3656 56.0853 54.435 57.056C53.395 56.952 52.3723 56.7787 51.367 56.536C50.3963 56.2933 49.5643 55.8947 48.871 55.34C48.1776 54.7853 47.675 54.0573 47.363 53.156C47.0856 52.2547 47.1376 51.0933 47.519 49.672ZM64.263 73.696C64.263 75.3253 63.8296 76.6253 62.963 77.596C62.0963 78.532 60.8136 79 59.115 79C57.4856 79 56.2203 78.532 55.319 77.596C54.4176 76.66 53.967 75.36 53.967 73.696C53.967 71.7893 54.4696 70.4373 55.475 69.64C56.4803 68.8427 57.6936 68.444 59.115 68.444C59.8083 68.444 60.467 68.548 61.091 68.756C61.715 68.964 62.2523 69.276 62.703 69.692C63.1883 70.108 63.5696 70.6453 63.847 71.304C64.1243 71.9627 64.263 72.76 64.263 73.696Z" fill="white"/>
</svg>
