<svg width="24" height="24" viewBox="0 0 24 24" fill="none" xmlns="http://www.w3.org/2000/svg">
<g clip-path="url(#clip0_6_38)">
<path d="M15.8859 20.9437C14.6953 21.4594 13.3828 21.75 12 21.75C6.61406 21.75 2.25 17.3859 2.25 12C2.25 6.61406 6.61406 2.25 12 2.25C17.3859 2.25 21.75 6.61406 21.75 12C21.75 13.05 21.5859 14.0578 21.2766 15.0047C21.4219 15.2156 21.5438 15.4453 21.6422 15.6891C22.2375 15.6141 22.8188 15.7078 23.3391 15.9234C23.7656 14.6953 23.9953 13.3734 23.9953 12C24 5.37188 18.6281 0 12 0C5.37188 0 0 5.37188 0 12C0 18.6281 5.37188 24 12 24C13.6594 24 15.2391 23.6625 16.6734 23.0531C16.4484 22.7953 16.275 22.4813 16.1859 22.1297L15.8813 20.9437H15.8859ZM13.875 14.8125C13.875 14.4891 13.7297 14.1938 13.5328 13.9547C13.3313 13.7109 13.0594 13.5 12.75 13.3266C12.1266 12.9797 11.3156 12.75 10.5 12.75C10.3313 12.75 10.1813 12.8672 10.1391 13.0312C10.0969 13.1953 10.1672 13.3687 10.3172 13.4531L10.3266 13.4578C10.3359 13.4625 10.35 13.4719 10.3688 13.4813C10.4063 13.5047 10.4625 13.5375 10.5281 13.5797C10.6594 13.6688 10.8328 13.7906 11.0063 13.9359C11.1797 14.0812 11.3438 14.2453 11.4563 14.4094C11.5734 14.5734 11.6203 14.7094 11.6203 14.8125C11.6203 14.9156 11.5734 15.0469 11.4563 15.2156C11.3391 15.3797 11.1797 15.5391 11.0063 15.6891C10.8328 15.8344 10.6594 15.9562 10.5281 16.0453C10.4625 16.0875 10.4063 16.1203 10.3688 16.1437C10.35 16.1531 10.3359 16.1625 10.3266 16.1672L10.3172 16.1719C10.2 16.2375 10.125 16.3641 10.125 16.5C10.125 16.6359 10.2 16.7625 10.3172 16.8281L10.3266 16.8328C10.3359 16.8375 10.35 16.8469 10.3688 16.8563C10.4063 16.8797 10.4625 16.9125 10.5281 16.9547C10.6594 17.0438 10.8328 17.1656 11.0063 17.3109C11.1797 17.4562 11.3438 17.6203 11.4563 17.7844C11.5734 17.9484 11.6203 18.0844 11.6203 18.1875C11.6203 18.2906 11.5734 18.4219 11.4563 18.5906C11.3391 18.7547 11.1797 18.9141 11.0063 19.0641C10.8328 19.2094 10.6594 19.3312 10.5281 19.4203C10.4625 19.4625 10.4063 19.4953 10.3688 19.5187C10.35 19.5281 10.3359 19.5375 10.3266 19.5422L10.3172 19.5469C10.1672 19.6313 10.0969 19.8047 10.1391 19.9688C10.1813 20.1328 10.3313 20.25 10.5 20.25C11.3156 20.25 12.1266 20.0203 12.7453 19.6734C13.0547 19.5 13.3313 19.2891 13.5281 19.0453C13.7297 18.8062 13.8703 18.5109 13.8703 18.1875C13.8703 17.8641 13.725 17.5688 13.5281 17.3297C13.3266 17.0859 13.0547 16.875 12.7453 16.7016C12.6188 16.6312 12.4781 16.5609 12.3375 16.5C12.4828 16.4391 12.6188 16.3734 12.7453 16.2984C13.0547 16.125 13.3313 15.9141 13.5281 15.6703C13.7297 15.4312 13.8703 15.1359 13.8703 14.8125H13.875ZM8.26875 11.25C8.66658 11.25 9.04811 11.092 9.32941 10.8107C9.61072 10.5294 9.76875 10.1478 9.76875 9.75C9.76875 9.35218 9.61072 8.97064 9.32941 8.68934C9.04811 8.40804 8.66658 8.25 8.26875 8.25C7.87093 8.25 7.4894 8.40804 7.20809 8.68934C6.92679 8.97064 6.76875 9.35218 6.76875 9.75C6.76875 10.1478 6.92679 10.5294 7.20809 10.8107C7.4894 11.092 7.87093 11.25 8.26875 11.25ZM15.7359 10.3125C16.2328 10.3125 16.6688 10.4906 16.9266 10.7672C17.2828 11.1469 17.8734 11.1656 18.2531 10.8094C18.6328 10.4531 18.6516 9.8625 18.2953 9.48281C17.6109 8.75625 16.6406 8.4375 15.7313 8.4375C14.8219 8.4375 13.8516 8.75625 13.1719 9.48281C12.8156 9.8625 12.8391 10.4531 13.2141 10.8094C13.5891 11.1656 14.1844 11.1422 14.5406 10.7672C14.7984 10.4953 15.2344 10.3125 15.7313 10.3125H15.7359ZM20.3438 16.5141C20.0625 15.4266 18.9938 14.7797 17.9484 15.0703C16.9031 15.3609 16.2891 16.4812 16.5656 17.5734L17.6391 21.7594C17.7422 22.1672 18.1641 22.4109 18.5672 22.2938L22.5469 21.1781C23.5875 20.8875 24.2063 19.7672 23.9297 18.675C23.6531 17.5828 22.5797 16.9406 21.5344 17.2313L20.5875 17.4938L20.3344 16.5094L20.3438 16.5141Z" fill="#382C4D"/>
</g>
<defs>
<clipPath id="clip0_6_38">
<rect width="24" height="24" fill="white"/>
</clipPath>
</defs>
</svg>
